<svg width="21" height="21" viewBox="0 0 21 21" fill="none" xmlns="http://www.w3.org/2000/svg">
<path d="M0 3.75C0 2.75544 0.395003 1.80161 1.09811 1.09835C1.80122 0.395088 2.75485 0 3.7492 0H17.2463C18.2407 0 19.1943 0.395088 19.8974 1.09835C20.6005 1.80161 20.9955 2.75544 20.9955 3.75V4.5H21V6H20.9955V17.25C20.9955 18.2446 20.6005 19.1984 19.8974 19.9016C19.1943 20.6049 18.2407 21 17.2463 21H3.7492C2.75485 21 1.80122 20.6049 1.09811 19.9016C0.395003 19.1984 0 18.2446 0 17.25V3.75ZM19.4958 4.5V3.75C19.4958 3.15326 19.2588 2.58097 18.837 2.15901C18.4151 1.73705 17.8429 1.5 17.2463 1.5H3.7492C3.15259 1.5 2.58041 1.73705 2.15855 2.15901C1.73668 2.58097 1.49968 3.15326 1.49968 3.75V4.5H19.4958ZM1.49968 6V17.25C1.49968 17.8467 1.73668 18.419 2.15855 18.841C2.58041 19.2629 3.15259 19.5 3.7492 19.5H17.2463C17.8429 19.5 18.4151 19.2629 18.837 18.841C19.2588 18.419 19.4958 17.8467 19.4958 17.25V6H1.49968ZM3.7537 7.5C3.55483 7.5 3.3641 7.57902 3.22348 7.71967C3.08286 7.86032 3.00386 8.05109 3.00386 8.25V14.25C3.00386 14.4489 3.08286 14.6397 3.22348 14.7803C3.3641 14.921 3.55483 15 3.7537 15H9.75241C9.95128 15 10.142 14.921 10.2826 14.7803C10.4232 14.6397 10.5022 14.4489 10.5022 14.25V8.25C10.5022 8.05109 10.4232 7.86032 10.2826 7.71967C10.142 7.57902 9.95128 7.5 9.75241 7.5H3.7537ZM9.00257 9V13.5H4.50353V9H9.00257Z" fill="white" fill-opacity="0.4"/>
</svg>
