<svg width="15" height="14" viewBox="0 0 15 14" fill="none" xmlns="http://www.w3.org/2000/svg">
<path d="M8.67188 0.8125H14.2969C14.6777 0.8125 15 1.13477 15 1.51562V6.20312C15 6.61328 14.6777 6.90625 14.2969 6.90625H8.67188C8.26172 6.90625 7.96875 6.61328 7.96875 6.20312V1.51562C7.96875 1.13477 8.26172 0.8125 8.67188 0.8125ZM6.32812 0.8125C6.70898 0.8125 7.03125 1.13477 7.03125 1.51562V6.20312C7.03125 6.61328 6.70898 6.90625 6.32812 6.90625H0.703125C0.292969 6.90625 0 6.61328 0 6.20312V1.51562C0 1.13477 0.292969 0.8125 0.703125 0.8125H6.32812ZM0 8.54688C0 8.16602 0.292969 7.84375 0.703125 7.84375H6.32812C6.70898 7.84375 7.03125 8.16602 7.03125 8.54688V13.2344C7.03125 13.6445 6.70898 13.9375 6.32812 13.9375H0.703125C0.292969 13.9375 0 13.6445 0 13.2344V8.54688ZM8.67188 13.9375C8.26172 13.9375 7.96875 13.6445 7.96875 13.2344V8.54688C7.96875 8.16602 8.26172 7.84375 8.67188 7.84375H14.2969C14.6777 7.84375 15 8.16602 15 8.54688V13.2344C15 13.6445 14.6777 13.9375 14.2969 13.9375H8.67188Z" fill="#555555"/>
</svg>
