<svg width="57" height="57" viewBox="0 0 57 57" fill="none" xmlns="http://www.w3.org/2000/svg">
<path d="M0 10.1786C0 7.47905 1.07215 4.89009 2.9806 2.98123C4.88904 1.07238 7.47744 0 10.1764 0H46.8114C49.5103 0 52.0987 1.07238 54.0072 2.98123C55.9156 4.89009 56.9878 7.47905 56.9878 10.1786V12.2143H57V16.2857H56.9878V46.8214C56.9878 49.521 55.9156 52.1099 54.0072 54.0188C52.0987 55.9276 49.5103 57 46.8114 57H10.1764C7.47744 57 4.88904 55.9276 2.9806 54.0188C1.07215 52.1099 0 49.521 0 46.8214V10.1786ZM52.9172 12.2143V10.1786C52.9172 8.55886 52.2739 7.00548 51.1289 5.86017C49.9838 4.71486 48.4308 4.07143 46.8114 4.07143H10.1764C8.55702 4.07143 7.00398 4.71486 5.85891 5.86017C4.71385 7.00548 4.07056 8.55886 4.07056 10.1786V12.2143H52.9172ZM4.07056 16.2857V46.8214C4.07056 48.4411 4.71385 49.9945 5.85891 51.1398C7.00398 52.2851 8.55702 52.9286 10.1764 52.9286H46.8114C48.4308 52.9286 49.9838 52.2851 51.1289 51.1398C52.2739 49.9945 52.9172 48.4411 52.9172 46.8214V16.2857H4.07056ZM10.1886 20.3571C9.64881 20.3571 9.13113 20.5716 8.74944 20.9534C8.36775 21.3352 8.15332 21.853 8.15332 22.3929V38.6786C8.15332 39.2185 8.36775 39.7363 8.74944 40.118C9.13113 40.4998 9.64881 40.7143 10.1886 40.7143H26.4708C27.0106 40.7143 27.5283 40.4998 27.91 40.118C28.2917 39.7363 28.5061 39.2185 28.5061 38.6786V22.3929C28.5061 21.853 28.2917 21.3352 27.91 20.9534C27.5283 20.5716 27.0106 20.3571 26.4708 20.3571H10.1886ZM24.4355 24.4286V36.6429H12.2239V24.4286H24.4355Z" fill="#FF7700"/>
</svg>
