<svg width="26" height="23" viewBox="0 0 26 23" fill="none" xmlns="http://www.w3.org/2000/svg">
<path d="M12.8682 19.7662L13.0064 19.8874L13.1388 19.7598L13.2653 19.6379C16.354 16.9414 18.9314 14.6894 20.7351 12.6574C22.5369 10.6275 23.6 8.78132 23.6 6.89373C23.6 4.26965 21.5535 2.30681 18.85 2.30681C16.8233 2.30681 14.8413 3.54233 14.0766 5.26485H11.9234C11.1587 3.54233 9.17669 2.30681 7.15 2.30681C4.44649 2.30681 2.4 4.26965 2.4 6.89373C2.4 8.78129 3.46308 10.6275 5.26324 12.6574C7.06509 14.6892 9.63901 16.9409 12.7209 19.6372L12.7252 19.6409L12.7253 19.641L12.8682 19.7662ZM12.8506 2.74006L13 2.90788L13.1494 2.74006C14.5289 1.19033 16.6458 0.2 18.85 0.2C22.7507 0.2 25.8 3.13822 25.8 6.89373C25.8 9.18823 24.7287 11.2929 22.8006 13.5673C20.8705 15.8439 18.1049 18.2647 14.7534 21.1949L14.7531 21.1952L13 22.7339L11.2469 21.1952L11.2466 21.1949C7.8951 18.2647 5.12949 15.8439 3.19943 13.5673C1.27131 11.2929 0.2 9.18823 0.2 6.89373C0.2 3.13822 3.24927 0.2 7.15 0.2C9.3542 0.2 11.4711 1.19033 12.8506 2.74006Z" fill="#FF7700" stroke="#006434" stroke-width="0.4"/>
</svg>
