<svg width="15" height="14" viewBox="0 0 15 14" fill="none" xmlns="http://www.w3.org/2000/svg">
<path d="M4.36523 6.20312V8.54688C4.36523 8.95703 4.04297 9.25 3.66211 9.25H0.703125C0.292969 9.25 0 8.95703 0 8.54688V6.20312C0 5.82227 0.292969 5.5 0.703125 5.5H3.66211C4.04297 5.5 4.36523 5.82227 4.36523 6.20312ZM0 10.8906C0 10.5098 0.292969 10.1875 0.703125 10.1875H3.66211C4.04297 10.1875 4.36523 10.5098 4.36523 10.8906V13.2344C4.36523 13.6445 4.04297 13.9375 3.66211 13.9375H0.703125C0.292969 13.9375 0 13.6445 0 13.2344V10.8906ZM3.66211 0.8125C4.04297 0.8125 4.36523 1.13477 4.36523 1.51562V3.85938C4.36523 4.26953 4.04297 4.5625 3.66211 4.5625H0.703125C0.292969 4.5625 0 4.26953 0 3.85938V1.51562C0 1.13477 0.292969 0.8125 0.703125 0.8125H3.66211ZM6.00586 13.9375C5.625 13.9375 5.30273 13.6445 5.30273 13.2344V10.8906C5.30273 10.5098 5.625 10.1875 6.00586 10.1875H14.2969C14.6777 10.1875 15 10.5098 15 10.8906V13.2344C15 13.6445 14.6777 13.9375 14.2969 13.9375H6.00586ZM5.30273 1.51562C5.30273 1.13477 5.625 0.8125 6.00586 0.8125H14.2969C14.6777 0.8125 15 1.13477 15 1.51562V3.85938C15 4.26953 14.6777 4.5625 14.2969 4.5625H6.00586C5.625 4.5625 5.30273 4.26953 5.30273 3.85938V1.51562ZM6.00586 9.25C5.625 9.25 5.30273 8.95703 5.30273 8.54688V6.20312C5.30273 5.82227 5.625 5.5 6.00586 5.5H14.2969C14.6777 5.5 15 5.82227 15 6.20312V8.54688C15 8.95703 14.6777 9.25 14.2969 9.25H6.00586Z" fill="#006434"/>
</svg>
