<svg width="21" height="24" viewBox="0 0 21 24" fill="none" xmlns="http://www.w3.org/2000/svg">
<path d="M10.5 0C8.9087 0 7.38258 0.632141 6.25736 1.75736C5.13214 2.88258 4.5 4.4087 4.5 6C4.5 7.5913 5.13214 9.11742 6.25736 10.2426C7.38258 11.3679 8.9087 12 10.5 12C12.0913 12 13.6174 11.3679 14.7426 10.2426C15.8679 9.11742 16.5 7.5913 16.5 6C16.5 4.4087 15.8679 2.88258 14.7426 1.75736C13.6174 0.632141 12.0913 0 10.5 0ZM6 6C6 4.80653 6.47411 3.66193 7.31802 2.81802C8.16193 1.97411 9.30653 1.5 10.5 1.5C11.6935 1.5 12.8381 1.97411 13.682 2.81802C14.5259 3.66193 15 4.80653 15 6C15 7.19347 14.5259 8.33807 13.682 9.18198C12.8381 10.0259 11.6935 10.5 10.5 10.5C9.30653 10.5 8.16193 10.0259 7.31802 9.18198C6.47411 8.33807 6 7.19347 6 6ZM3.0135 13.5C2.61845 13.4984 2.22698 13.5748 1.86154 13.7249C1.49609 13.8749 1.16386 14.0956 0.883889 14.3743C0.603921 14.653 0.381727 14.9843 0.230049 15.3491C0.0783718 15.7138 0.000194268 16.105 0 16.5C0 19.0365 1.2495 20.949 3.2025 22.1955C5.1255 23.421 7.7175 24 10.5 24C13.2825 24 15.8745 23.421 17.7975 22.1955C19.7505 20.9505 21 19.035 21 16.5C21 15.7044 20.6839 14.9413 20.1213 14.3787C19.5587 13.8161 18.7956 13.5 18 13.5H3.0135ZM1.5 16.5C1.5 15.6705 2.172 15 3.0135 15H18C18.3978 15 18.7794 15.158 19.0607 15.4393C19.342 15.7206 19.5 16.1022 19.5 16.5C19.5 18.4635 18.567 19.926 16.9905 20.9295C15.3855 21.954 13.1025 22.5 10.5 22.5C7.8975 22.5 5.6145 21.954 4.0095 20.9295C2.4345 19.9245 1.5 18.465 1.5 16.5Z" fill="white" fill-opacity="0.4"/>
</svg>
